<svg width="165" height="50" viewBox="0 0 165 50" fill="none" xmlns="http://www.w3.org/2000/svg">
<g clip-path="url(#clip0_669_689)">
<path d="M27.4021 48.9585V29.5934H12.0161V48.9585H0V0.737442H12.0161V19.1742H27.4021V0.737442H39.4181V48.9585H27.4021Z" fill="white"/>
<path d="M57.8228 49.8905C48.6745 49.8905 41.6375 43.0369 41.6375 33.7155C41.6375 24.3941 48.8366 17.5405 57.8228 17.5405C66.8089 17.5405 74.0073 24.3941 74.0073 33.606C74.0073 42.8179 66.8622 49.8905 57.8228 49.8905ZM65.0219 33.7147C65.0219 29.6573 61.9905 26.0385 57.7687 26.0385C53.8171 26.0385 50.6236 29.5478 50.6236 33.7147C50.6236 37.8817 53.7631 41.391 57.8228 41.391C61.8824 41.391 65.0219 37.7722 65.0219 33.7147Z" fill="white"/>
<path d="M95.1725 48.9585V45.7236H95.0644C93.7652 48.5198 91.3838 49.9453 87.3241 49.9453C80.9911 49.9453 75.7404 46.1068 75.7404 37.4437V18.5272H84.7258V35.5796C84.7258 39.5823 86.133 41.4464 89.5435 41.4464C92.9539 41.4464 94.6861 39.1437 94.6861 35.4146V18.5265H103.672V48.9577H95.1732L95.1725 48.9585Z" fill="white"/>
<path d="M121.858 27.0808C121.804 25.3261 120.559 24.778 119.098 24.778C117.637 24.778 116.5 25.6553 116.5 26.8063C116.5 28.4515 117.961 29.2734 122.129 30.3704C129.274 32.2893 131.602 35.1957 131.602 39.6371C131.602 45.9973 126.189 50 119.368 50C112.547 50 107.784 46.1068 107.134 39.9107H116.066C116.337 41.8296 117.69 42.7069 119.476 42.7069C121.046 42.7069 122.616 41.7749 122.616 40.3494C122.616 38.6495 121.587 37.7722 117.095 36.3467C109.517 33.9892 107.513 30.9733 107.513 27.4092C107.513 21.3774 113.089 17.4849 119.151 17.4849C125.647 17.4849 130.248 21.1037 130.681 27.08H121.858L121.858 27.0808Z" fill="white"/>
<path d="M142.266 36.5117C142.753 39.9663 145.622 42.269 149.303 42.269C151.738 42.269 153.308 41.337 154.769 39.4181H163.972C161.103 46.0528 155.636 49.9453 149.303 49.9453C140.641 49.9453 133.388 42.8719 133.388 33.825C133.388 24.778 140.317 17.4857 149.14 17.4857C157.964 17.4857 165.001 24.6685 165.001 34.0994C165.001 34.9767 164.947 35.6899 164.784 36.5117H142.266ZM156.015 30.3704C155.311 27.245 152.604 25.1612 149.14 25.1612C145.892 25.1612 143.077 27.1348 142.374 30.3704H156.015Z" fill="white"/>
<path d="M99.1622 15.2407V0.777733H110.701V4.24675H103.749V6.72744H109.726V10.049H103.749V15.2415H99.1622V15.2407Z" fill="white"/>
<path d="M112.714 2.83801V0H116.844V2.83801H112.714ZM112.714 15.2407V4.14107H116.844V15.2407H112.714Z" fill="white"/>
<path d="M119.334 15.2407V4.14107H122.717L122.986 5.82274H123.132C123.311 5.40232 123.543 5.04501 123.827 4.75079C124.111 4.45657 124.44 4.2361 124.813 4.08861C125.186 3.94112 125.58 3.86814 125.995 3.86814C126.272 3.86814 126.521 3.89627 126.742 3.95253C126.964 4.00879 127.123 4.06505 127.22 4.12054V7.63137H125.891C125.448 7.63137 125.071 7.69143 124.76 7.81003C124.449 7.92939 124.199 8.10424 124.013 8.33536C123.826 8.56647 123.688 8.84701 123.598 9.17619C123.508 9.50538 123.463 9.88018 123.463 10.3006V15.2407H119.333H119.334Z" fill="white"/>
<path d="M133.613 15.4931C132.948 15.4931 132.288 15.4262 131.63 15.2931C130.973 15.1601 130.371 14.9495 129.825 14.6621C129.278 14.3748 128.839 14.0068 128.507 13.5583C128.175 13.1097 128.008 12.5631 128.008 11.9184V11.7816C128.008 11.7329 128.015 11.6797 128.029 11.6242H131.869C131.855 11.666 131.848 11.7086 131.848 11.7504V11.8553C131.862 12.1077 131.948 12.3175 132.108 12.4863C132.267 12.6543 132.478 12.7805 132.74 12.8649C133.003 12.9493 133.294 12.9911 133.612 12.9911C133.805 12.9911 134.037 12.9774 134.307 12.9493C134.576 12.9212 134.815 12.8512 135.023 12.7387C135.231 12.627 135.334 12.4377 135.334 12.1708C135.334 11.9329 135.213 11.7542 134.971 11.6348C134.729 11.5162 134.41 11.4174 134.016 11.3406C133.622 11.2638 133.189 11.1832 132.719 11.0989C132.208 11.0145 131.692 10.9065 131.173 10.7727C130.655 10.6397 130.174 10.4504 129.731 10.2048C129.288 9.96001 128.931 9.63386 128.662 9.22713C128.393 8.82116 128.257 8.29507 128.257 7.65038C128.257 6.92206 128.406 6.31234 128.704 5.82122C129.001 5.33086 129.41 4.94161 129.928 4.65424C130.447 4.36686 131.035 4.16388 131.692 4.04452C132.349 3.92592 133.038 3.86586 133.757 3.86586C134.38 3.86586 134.998 3.92592 135.614 4.04452C136.23 4.16388 136.793 4.35318 137.306 4.61242C137.818 4.87167 138.226 5.2115 138.53 5.63192C138.834 6.05233 138.986 6.56398 138.986 7.16686V7.32423C138.986 7.38733 138.979 7.43294 138.965 7.46107H135.168V7.29306C135.168 7.08247 135.095 6.91141 134.95 6.77837C134.804 6.64533 134.618 6.54726 134.389 6.48415C134.161 6.42105 133.929 6.38988 133.694 6.38988C133.611 6.38988 133.486 6.39369 133.321 6.40053C133.155 6.40737 132.985 6.4317 132.812 6.47427C132.639 6.51609 132.494 6.58679 132.376 6.68486C132.259 6.78293 132.2 6.92358 132.2 7.10528C132.2 7.27329 132.28 7.41014 132.439 7.51505C132.598 7.61997 132.812 7.70435 133.082 7.76745C133.351 7.83055 133.652 7.89746 133.985 7.9674C134.51 8.06547 135.078 8.1605 135.686 8.25097C136.295 8.3422 136.872 8.49653 137.419 8.7132C137.966 8.93063 138.412 9.25982 138.758 9.70153C139.104 10.1432 139.277 10.7628 139.277 11.5619C139.277 12.3183 139.124 12.9531 138.821 13.464C138.516 13.9756 138.101 14.3786 137.575 14.6728C137.049 14.967 136.444 15.1776 135.76 15.3038C135.075 15.43 134.359 15.4931 133.612 15.4931H133.613Z" fill="white"/>
<path d="M145.877 15.4931C145.13 15.4931 144.469 15.4057 143.895 15.2301C143.321 15.0552 142.874 14.7503 142.556 14.3155C142.238 13.8814 142.079 13.2853 142.079 12.5289V6.97908H140.543V4.14107H142.244L143.137 0.777733H146.208V4.14107H148.532V6.97908H146.208V11.2045C146.208 11.6812 146.284 12.0423 146.436 12.2871C146.589 12.5327 146.899 12.6551 147.37 12.6551H148.532V15.1145C148.31 15.1844 148.037 15.2513 147.712 15.3144C147.387 15.3775 147.061 15.4232 146.736 15.4513C146.411 15.4794 146.124 15.4931 145.875 15.4931H145.877Z" fill="white"/>
<path d="M50.0262 15.2407V4.47786H45.3361V0.777733H59.2825V4.47786H54.6127V15.2415H50.0262V15.2407Z" fill="white"/>
<path d="M61.0875 15.2407V0H65.2177V5.29741H65.3633C65.5983 4.98951 65.8955 4.7333 66.2557 4.53032C66.6152 4.32733 67.0025 4.16996 67.4176 4.05744C67.8326 3.94569 68.2409 3.88943 68.6417 3.88943C69.5131 3.88943 70.2291 4.0544 70.7897 4.38359C71.3504 4.71278 71.7684 5.18641 72.0454 5.80221C72.3223 6.41878 72.4604 7.16838 72.4604 8.05179V15.2415H68.3302V8.55659C68.3302 8.31864 68.2994 8.10425 68.2371 7.9157C68.1749 7.7264 68.0885 7.56219 67.9775 7.42154C67.8664 7.28166 67.7245 7.17294 67.5519 7.0954C67.3785 7.01861 67.1751 6.97984 66.9395 6.97984C66.5935 6.97984 66.2925 7.06042 66.0366 7.2216C65.7806 7.38277 65.5803 7.59336 65.4346 7.8526C65.289 8.11185 65.217 8.40302 65.217 8.72537V15.2422H61.0868L61.0875 15.2407Z" fill="white"/>
<path d="M74.9304 2.83801V0H79.0606V2.83801H74.9304ZM74.9304 15.2407V4.14107H79.0606V15.2407H74.9304Z" fill="white"/>
<path d="M86.614 15.4931C85.9498 15.4931 85.2893 15.4262 84.6319 15.2931C83.9744 15.1601 83.3725 14.9495 82.8261 14.6621C82.2797 14.3748 81.8406 14.0068 81.5081 13.5583C81.1764 13.1097 81.0098 12.5631 81.0098 11.9184V11.7816C81.0098 11.7329 81.0165 11.6797 81.0308 11.6242H84.8705C84.8563 11.666 84.8495 11.7086 84.8495 11.7504V11.8553C84.863 12.1077 84.9493 12.3175 85.1092 12.4863C85.2683 12.6543 85.4792 12.7805 85.7419 12.8649C86.0046 12.9493 86.295 12.9911 86.6133 12.9911C86.8069 12.9911 87.0388 12.9774 87.3083 12.9493C87.5777 12.9212 87.8164 12.8512 88.0243 12.7387C88.2322 12.627 88.3357 12.4377 88.3357 12.1708C88.3357 11.9329 88.2142 11.7542 87.9725 11.6348C87.7301 11.5162 87.4118 11.4174 87.0178 11.3406C86.6238 11.2638 86.1907 11.1832 85.7209 11.0989C85.209 11.0145 84.6934 10.9065 84.1748 10.7727C83.6562 10.6397 83.1751 10.4504 82.7323 10.2048C82.2894 9.96001 81.9329 9.63386 81.6635 9.22713C81.394 8.82116 81.2589 8.29507 81.2589 7.65038C81.2589 6.92206 81.4076 6.31234 81.7055 5.82122C82.0027 5.33086 82.411 4.94161 82.9296 4.65424C83.4483 4.36686 84.0367 4.16388 84.6934 4.04452C85.3501 3.92592 86.0391 3.86586 86.7581 3.86586C87.3811 3.86586 87.9995 3.92592 88.6157 4.04452C89.2311 4.16388 89.7948 4.35318 90.3074 4.61242C90.8193 4.87167 91.2276 5.2115 91.5315 5.63192C91.8355 6.05233 91.9879 6.56398 91.9879 7.16686V7.32423C91.9879 7.38733 91.9803 7.43294 91.9668 7.46107H88.1691V7.29306C88.1691 7.08247 88.0963 6.91141 87.9515 6.77837C87.8059 6.64533 87.6197 6.54726 87.3908 6.48415C87.1627 6.42105 86.9307 6.38988 86.6958 6.38988C86.6125 6.38988 86.4879 6.39369 86.3221 6.40053C86.1562 6.40737 85.9866 6.4317 85.8139 6.47427C85.6406 6.51609 85.4957 6.58679 85.3779 6.68486C85.2601 6.78293 85.2015 6.92358 85.2015 7.10528C85.2015 7.27329 85.2811 7.41014 85.4402 7.51505C85.5993 7.61997 85.8139 7.70435 86.0834 7.76745C86.3528 7.83055 86.6538 7.89746 86.9863 7.9674C87.5117 8.06547 88.0791 8.1605 88.6877 8.25097C89.2964 8.3422 89.8736 8.49653 90.4207 8.7132C90.9671 8.93063 91.4137 9.25982 91.7597 9.70153C92.1057 10.1432 92.2783 10.7628 92.2783 11.5619C92.2783 12.3183 92.126 12.9531 91.822 13.464C91.5173 13.9756 91.1022 14.3786 90.5768 14.6728C90.0507 14.967 89.4458 15.1776 88.7613 15.3038C88.0768 15.43 87.3601 15.4931 86.6133 15.4931H86.614Z" fill="white"/>
</g>
<defs>
<clipPath id="clip0_669_689">
<rect width="165" height="50" fill="white"/>
</clipPath>
</defs>
</svg>
